<svg xmlns="http://www.w3.org/2000/svg" xmlns:svg="http://www.w3.org/2000/svg" id="svg865" width="487.318" height="366.428" version="1.1" viewBox="0 0 128.936 96.951"><defs id="defs859"><marker style="overflow:visible" id="marker4085" orient="auto" refX="0" refY="0"><path transform="matrix(-0.4,0,0,-0.4,-4,0)" style="fill:#000;fill-opacity:1;fill-rule:evenodd;stroke:#000;stroke-width:1pt;stroke-opacity:1" id="path4083" d="M 0,0 5,-5 -12.5,0 5,5 Z"/></marker><marker id="marker3863" orient="auto" refX="0" refY="0" style="overflow:visible"><path id="path3861" d="M 0,0 5,-5 -12.5,0 5,5 Z" style="fill:#000;fill-opacity:1;fill-rule:evenodd;stroke:#000;stroke-width:1pt;stroke-opacity:1" transform="matrix(-0.4,0,0,-0.4,-4,0)"/></marker><marker style="overflow:visible" id="marker3037" orient="auto" refX="0" refY="0"><path transform="matrix(-0.4,0,0,-0.4,-4,0)" style="fill:#000;fill-opacity:1;fill-rule:evenodd;stroke:#000;stroke-width:1pt;stroke-opacity:1" id="path3035" d="M 0,0 5,-5 -12.5,0 5,5 Z"/></marker><marker style="overflow:visible" id="marker3027" orient="auto" refX="0" refY="0"><path transform="matrix(-0.4,0,0,-0.4,-4,0)" style="fill:#000;fill-opacity:1;fill-rule:evenodd;stroke:#000;stroke-width:1pt;stroke-opacity:1" id="path3025" d="M 0,0 5,-5 -12.5,0 5,5 Z"/></marker><marker style="overflow:visible" id="marker3017" orient="auto" refX="0" refY="0"><path transform="matrix(-0.4,0,0,-0.4,-4,0)" style="fill:#000;fill-opacity:1;fill-rule:evenodd;stroke:#000;stroke-width:1pt;stroke-opacity:1" id="path3015" d="M 0,0 5,-5 -12.5,0 5,5 Z"/></marker><marker style="overflow:visible" id="marker3007" orient="auto" refX="0" refY="0"><path transform="matrix(-0.4,0,0,-0.4,-4,0)" style="fill:#000;fill-opacity:1;fill-rule:evenodd;stroke:#000;stroke-width:1pt;stroke-opacity:1" id="path3005" d="M 0,0 5,-5 -12.5,0 5,5 Z"/></marker><marker style="overflow:visible" id="marker2997" orient="auto" refX="0" refY="0"><path transform="matrix(-0.4,0,0,-0.4,-4,0)" style="fill:#000;fill-opacity:1;fill-rule:evenodd;stroke:#000;stroke-width:1pt;stroke-opacity:1" id="path2995" d="M 0,0 5,-5 -12.5,0 5,5 Z"/></marker><marker style="overflow:visible" id="marker2987" orient="auto" refX="0" refY="0"><path transform="matrix(-0.4,0,0,-0.4,-4,0)" style="fill:#000;fill-opacity:1;fill-rule:evenodd;stroke:#000;stroke-width:1pt;stroke-opacity:1" id="path2985" d="M 0,0 5,-5 -12.5,0 5,5 Z"/></marker><marker style="overflow:visible" id="marker1789" orient="auto" refX="0" refY="0"><path transform="matrix(-0.4,0,0,-0.4,-4,0)" style="fill:#000;fill-opacity:1;fill-rule:evenodd;stroke:#000;stroke-width:1pt;stroke-opacity:1" id="path1787" d="M 0,0 5,-5 -12.5,0 5,5 Z"/></marker><marker id="Arrow1Mstart" orient="auto" refX="0" refY="0" style="overflow:visible"><path id="path1495" d="M 0,0 5,-5 -12.5,0 5,5 Z" style="fill:#000;fill-opacity:1;fill-rule:evenodd;stroke:#000;stroke-width:1pt;stroke-opacity:1" transform="matrix(0.4,0,0,0.4,4,0)"/></marker><marker id="marker2987-6" orient="auto" refX="0" refY="0" style="overflow:visible"><path id="path2985-0" d="M 0,0 5,-5 -12.5,0 5,5 Z" style="fill:#000;fill-opacity:1;fill-rule:evenodd;stroke:#000;stroke-width:1pt;stroke-opacity:1" transform="matrix(-0.4,0,0,-0.4,-4,0)"/></marker><marker id="marker2997-6" orient="auto" refX="0" refY="0" style="overflow:visible"><path id="path2995-9" d="M 0,0 5,-5 -12.5,0 5,5 Z" style="fill:#000;fill-opacity:1;fill-rule:evenodd;stroke:#000;stroke-width:1pt;stroke-opacity:1" transform="matrix(-0.4,0,0,-0.4,-4,0)"/></marker><marker id="marker3007-7" orient="auto" refX="0" refY="0" style="overflow:visible"><path id="path3005-0" d="M 0,0 5,-5 -12.5,0 5,5 Z" style="fill:#000;fill-opacity:1;fill-rule:evenodd;stroke:#000;stroke-width:1pt;stroke-opacity:1" transform="matrix(-0.4,0,0,-0.4,-4,0)"/></marker><marker id="marker3017-0" orient="auto" refX="0" refY="0" style="overflow:visible"><path id="path3015-1" d="M 0,0 5,-5 -12.5,0 5,5 Z" style="fill:#000;fill-opacity:1;fill-rule:evenodd;stroke:#000;stroke-width:1pt;stroke-opacity:1" transform="matrix(-0.4,0,0,-0.4,-4,0)"/></marker><marker id="marker3027-2" orient="auto" refX="0" refY="0" style="overflow:visible"><path id="path3025-8" d="M 0,0 5,-5 -12.5,0 5,5 Z" style="fill:#000;fill-opacity:1;fill-rule:evenodd;stroke:#000;stroke-width:1pt;stroke-opacity:1" transform="matrix(-0.4,0,0,-0.4,-4,0)"/></marker><marker id="marker3037-9" orient="auto" refX="0" refY="0" style="overflow:visible"><path id="path3035-3" d="M 0,0 5,-5 -12.5,0 5,5 Z" style="fill:#000;fill-opacity:1;fill-rule:evenodd;stroke:#000;stroke-width:1pt;stroke-opacity:1" transform="matrix(-0.4,0,0,-0.4,-4,0)"/></marker></defs><metadata id="metadata862"/><g id="layer1" transform="translate(-22.014261,-106.94551)"><rect style="opacity:1;fill:#dadada;fill-opacity:1;stroke:#646464;stroke-width:.52899997;stroke-linecap:round;stroke-linejoin:round;stroke-miterlimit:4;stroke-dasharray:none;stroke-dashoffset:0;stroke-opacity:1" id="rect1472" width="60.994" height="60.62" x="61.923" y="128.533"/><path id="rect4245" style="opacity:.547826;fill:#e6c60f;fill-opacity:1;stroke:none;stroke-width:4.76499;stroke-linecap:round;stroke-linejoin:round;stroke-miterlimit:4;stroke-dasharray:none;stroke-dashoffset:0;stroke-opacity:1" d="m 122.88575,177.40433 -63.505008,-30.88566 -19.079629,-19.3517 5.159831,-5.09147 17.778518,17.75968 60.511588,36.0704 14.22734,13.72483 -1.33065,1.20369 z"/><path style="fill:none;stroke:#000;stroke-width:.529;stroke-linecap:butt;stroke-linejoin:miter;stroke-miterlimit:4;stroke-dasharray:none;stroke-opacity:1;marker-end:url(#marker2997)" id="path1953" d="m 55.02613,136.65009 6.319711,6.31971"/><path style="fill:none;stroke:#000;stroke-width:.529;stroke-linecap:butt;stroke-linejoin:miter;stroke-miterlimit:4;stroke-dasharray:.529,.529;stroke-dashoffset:0;stroke-opacity:1;marker-end:url(#marker3007)" id="path2447" d="m 61.895963,143.51992 8.008661,4.29848"/><path id="path3859" d="m 61.895963,143.51992 -6.319711,6.31971" style="fill:none;stroke:#000;stroke-width:.529;stroke-linecap:butt;stroke-linejoin:miter;stroke-miterlimit:4;stroke-dasharray:.529,.529;stroke-dashoffset:0;stroke-opacity:1;marker-end:url(#marker3863)"/><path id="path1953-3" d="m 122.89881,176.30188 6.31971,6.31971" style="fill:none;stroke:#000;stroke-width:.529;stroke-linecap:butt;stroke-linejoin:miter;stroke-miterlimit:4;stroke-dasharray:.529,.529;stroke-dashoffset:0;stroke-opacity:1;marker-end:url(#marker2997-6)"/><path id="path2447-1" d="m 114.09669,171.74344 8.00866,4.29848" style="fill:none;stroke:#000;stroke-width:.529;stroke-linecap:butt;stroke-linejoin:miter;stroke-miterlimit:4;stroke-dasharray:none;stroke-opacity:1;marker-end:url(#marker3007-7)"/><path style="fill:none;stroke:#000;stroke-width:.529;stroke-linecap:butt;stroke-linejoin:miter;stroke-miterlimit:4;stroke-dasharray:.529,.529;stroke-dashoffset:0;stroke-opacity:1;marker-end:url(#marker4085)" id="path4081" d="m 122.89881,176.30188 -8.00866,4.29848"/><circle style="opacity:1;fill:#e5c70f;fill-opacity:.54902;stroke:#000;stroke-width:.529;stroke-linecap:round;stroke-linejoin:round;stroke-miterlimit:4;stroke-dasharray:none;stroke-dashoffset:0;stroke-opacity:1" id="path4284" cx="32.544" cy="117.475" r="5.358"/><path id="path1002" d="m 29.045156,111.41526 -1.766153,-3.05907" style="fill:none;stroke:#e5c70f;stroke-width:.529;stroke-linecap:butt;stroke-linejoin:miter;stroke-miterlimit:4;stroke-dasharray:none;stroke-opacity:.54902"/><path id="path1004" d="m 32.543749,110.47781 v -3.5323" style="fill:none;stroke:#e5c70f;stroke-width:.529;stroke-linecap:butt;stroke-linejoin:miter;stroke-miterlimit:4;stroke-dasharray:none;stroke-opacity:.54902"/><path id="path1006" d="m 36.042341,111.41526 1.766152,-3.05907" style="fill:none;stroke:#e5c70f;stroke-width:.529;stroke-linecap:butt;stroke-linejoin:miter;stroke-miterlimit:4;stroke-dasharray:none;stroke-opacity:.54902"/><path id="path1008" d="m 38.603487,113.9764 3.059066,-1.76615" style="fill:none;stroke:#e5c70f;stroke-width:.529;stroke-linecap:butt;stroke-linejoin:miter;stroke-miterlimit:4;stroke-dasharray:none;stroke-opacity:.54902"/><path id="path1010" d="m 39.540933,117.475 h 3.532305" style="fill:none;stroke:#e5c70f;stroke-width:.529;stroke-linecap:butt;stroke-linejoin:miter;stroke-miterlimit:4;stroke-dasharray:none;stroke-opacity:.54902"/><path id="path1012" d="m 38.603488,120.97359 3.059065,1.76615" style="fill:none;stroke:#e5c70f;stroke-width:.529;stroke-linecap:butt;stroke-linejoin:miter;stroke-miterlimit:4;stroke-dasharray:none;stroke-opacity:.54902"/><path id="path1014" d="m 36.042343,123.53474 1.766152,3.05906" style="fill:none;stroke:#e5c70f;stroke-width:.529;stroke-linecap:butt;stroke-linejoin:miter;stroke-miterlimit:4;stroke-dasharray:none;stroke-opacity:.54902"/><path id="path1016" d="m 32.543749,124.47218 v 3.53231" style="fill:none;stroke:#e5c70f;stroke-width:.529;stroke-linecap:butt;stroke-linejoin:miter;stroke-miterlimit:4;stroke-dasharray:none;stroke-opacity:.54902"/><path id="path1018" d="m 29.045156,123.53474 -1.766153,3.05906" style="fill:none;stroke:#e5c70f;stroke-width:.529;stroke-linecap:butt;stroke-linejoin:miter;stroke-miterlimit:4;stroke-dasharray:none;stroke-opacity:.54902"/><path id="path1020" d="m 26.48401,120.97359 -3.059065,1.76615" style="fill:none;stroke:#e5c70f;stroke-width:.529;stroke-linecap:butt;stroke-linejoin:miter;stroke-miterlimit:4;stroke-dasharray:none;stroke-opacity:.54902"/><path id="path1022" d="m 26.48401,113.9764 -3.059065,-1.76615" style="fill:none;stroke:#e5c70f;stroke-width:.529;stroke-linecap:butt;stroke-linejoin:miter;stroke-miterlimit:4;stroke-dasharray:none;stroke-opacity:.54902"/><path id="path1024" d="M 25.55131,117.475 H 22.014261" style="fill:none;stroke:#e5c70f;stroke-width:.529;stroke-linecap:butt;stroke-linejoin:miter;stroke-miterlimit:4;stroke-dasharray:none;stroke-opacity:.54902"/><g transform="rotate(50.917552,145.4352,189.5203)" style="stroke-width:.529;stroke-miterlimit:4;stroke-dasharray:none" id="g1107"><path id="path1100" style="fill:none;stroke:#000;stroke-width:.529;stroke-linecap:butt;stroke-linejoin:miter;stroke-miterlimit:4;stroke-dasharray:none;stroke-opacity:1" d="m 146.14921,200.30771 12.28025,-4.86745 -12.28025,-4.86745"/><path style="fill:none;stroke:#000;stroke-width:.529;stroke-linecap:butt;stroke-linejoin:miter;stroke-miterlimit:4;stroke-dasharray:none;stroke-opacity:1" id="path1103" d="m 148.63602,191.55849 c -1.09288,2.5364 -1.06569,4.99782 0,7.76353"/></g><text id="text1111" x="63.361" y="187.861" style="font-style:normal;font-weight:400;font-size:7.05556px;line-height:1.25;font-family:sans-serif;letter-spacing:0;word-spacing:0;fill:#666;fill-opacity:1;stroke:none;stroke-width:.264583" xml:space="preserve"><tspan style="font-style:normal;font-variant:normal;font-weight:400;font-stretch:normal;font-size:7.05556px;font-family:Arial;-inkscape-font-specification:Arial;stroke-width:.264583;fill:#666" id="tspan1109" x="63.361" y="187.861">IOR=1.5</tspan></text><text xml:space="preserve" style="font-style:normal;font-weight:400;font-size:7.05556px;line-height:1.25;font-family:sans-serif;letter-spacing:0;word-spacing:0;fill:#666;fill-opacity:1;stroke:none;stroke-width:.264583" id="text1115" x="124.819" y="134.26"><tspan id="tspan1113" x="124.819" y="134.26" style="font-style:normal;font-variant:normal;font-weight:400;font-stretch:normal;font-size:7.05556px;font-family:Arial;-inkscape-font-specification:Arial;stroke-width:.264583;fill:#666">IOR=1.0</tspan></text></g></svg>