<svg xmlns="http://www.w3.org/2000/svg" xmlns:svg="http://www.w3.org/2000/svg" id="svg8" width="960" height="400" version="1.1" viewBox="0 0 254 105.833"><metadata id="metadata5"/><g id="layer1"><rect id="rect4679" width="51.635" height="3.722" x="2.834" y="52.191" ry="0" style="opacity:1;fill:#e5e5e5;fill-opacity:1;stroke:none;stroke-width:.52916666;stroke-linecap:round;stroke-linejoin:miter;stroke-miterlimit:4;stroke-dasharray:1.05833332,2.1166666300000001;stroke-dashoffset:0;stroke-opacity:1;paint-order:normal"/><path id="circle4664" d="M 117.06434,15.451458 A 39.535855,39.535855 0 0 0 77.527935,54.987849 39.535855,39.535855 0 0 0 117.06434,94.523226 39.535855,39.535855 0 0 0 156.59968,54.987849 39.535855,39.535855 0 0 0 117.06434,15.451458 Z m 0,5.232884 a 34.303524,34.303524 0 0 1 34.3035,34.303507 34.303524,34.303524 0 0 1 -34.3035,34.303518 A 34.303524,34.303524 0 0 1 82.760826,54.987849 34.303524,34.303524 0 0 1 117.06434,20.684342 Z" style="opacity:1;fill:#e5e5e5;fill-opacity:1;stroke:#000;stroke-width:.52916666;stroke-linecap:round;stroke-linejoin:round;stroke-miterlimit:4;stroke-dasharray:1.05833332,2.11666663;stroke-dashoffset:0;stroke-opacity:1;paint-order:normal"/><circle id="path4658" cx="117.064" cy="54.987" r="37.042" style="opacity:1;fill:none;fill-opacity:1;stroke:#000;stroke-width:.52916666;stroke-linecap:round;stroke-linejoin:round;stroke-miterlimit:4;stroke-dasharray:none;stroke-dashoffset:0;stroke-opacity:1;paint-order:normal"/><circle r="37.042" style="opacity:1;fill:#e5e5e5;fill-opacity:1;stroke:#000;stroke-width:.52916666;stroke-linecap:round;stroke-linejoin:round;stroke-miterlimit:4;stroke-dasharray:none;stroke-dashoffset:0;stroke-opacity:1;paint-order:normal" id="circle4660" cx="212.035" cy="54.987"/><path id="path4673" d="M 2.8335283,54.051993 H 54.468981" style="fill:none;fill-rule:evenodd;stroke:#000;stroke-width:.52916666;stroke-linecap:butt;stroke-linejoin:miter;stroke-miterlimit:4;stroke-dasharray:none;stroke-dashoffset:0;stroke-opacity:1"/><path id="path869" d="M 2.8335282,52.190776 H 54.468982" style="fill:none;stroke:#000;stroke-width:.52916663;stroke-linecap:round;stroke-linejoin:round;stroke-opacity:1;stroke-miterlimit:4;stroke-dasharray:1.05833325,2.11666650999999995;stroke-dashoffset:0"/><path style="fill:none;stroke:#000;stroke-width:.529167;stroke-linecap:round;stroke-linejoin:round;stroke-miterlimit:4;stroke-dasharray:1.05833,2.11667;stroke-dashoffset:0;stroke-opacity:1" id="path871" d="M 2.8335283,55.91321 H 54.468982"/></g></svg>